<?xml version="1.0" encoding="UTF-8" standalone="no"?>
<!-- Created with Inkscape (http://www.inkscape.org/) -->
<svg id="svg2" xmlns:rdf="http://www.w3.org/1999/02/22-rdf-syntax-ns#" xmlns="http://www.w3.org/2000/svg" height="2720" width="3988" version="1.1" viewbox="-10 2400 13000 4000" xmlns:cc="http://creativecommons.org/ns#" xmlns:xlink="http://www.w3.org/1999/xlink"
  xmlns:dc="http://purl.org/dc/elements/1.1/">
 <defs id="defs4">
  <filter id="filter4533">
   <feGaussianBlur id="feGaussianBlur4535" stdDeviation="12.397378"/>
  </filter>
  <filter id="filter4537">
   <feGaussianBlur id="feGaussianBlur4539" stdDeviation="12.739491"/>
  </filter>
  <filter id="filter4541">
   <feGaussianBlur id="feGaussianBlur4543" stdDeviation="19.148452"/>
  </filter>
  <filter id="filter4545">
   <feGaussianBlur id="feGaussianBlur4547" stdDeviation="25.398864"/>
  </filter>
  <filter id="filter4561">
   <feGaussianBlur id="feGaussianBlur4563" stdDeviation="7.6496061"/>
  </filter>
  <filter id="filter4573">
   <feGaussianBlur id="feGaussianBlur4575" stdDeviation="9.9675136"/>
  </filter>
  <filter id="filter4581">
   <feGaussianBlur id="feGaussianBlur4583" stdDeviation="9.3677424"/>
  </filter>
 </defs>
 <metadata id="metadata7">
  <rdf:RDF>
   <cc:Work rdf:about="">
    <dc:format>image/svg+xml</dc:format>
    <dc:type rdf:resource="http://purl.org/dc/dcmitype/StillImage"/>
    <dc:title/>
   </cc:Work>
  </rdf:RDF>
 </metadata>
 <g id="layer8">
  <path  class="Animate-Draw7" id="path4448" stroke-linejoin="miter" d="M0,0,0,1085.2,3988,1107.8,3988,0z" stroke-opacity="0.99607843" fill-opacity="0.99501653999999995" filter="url(#filter4537)" stroke="#adc6e0" stroke-linecap="butt" stroke-width="1px" fill="#adc6e0"/>
 </g>
 <g id="layer7">
  <path class="Animate-Draw6" id="path4445" stroke-linejoin="miter" d="m0,1119.1v-599.63c55.388-3.3569,18.856-41.484,73.539-50.912,54.683-9.4281,33.941,0,101.82,22.627,67.882,22.627,158.39,49.026,186.68,45.255,28.284-3.7712,56.318-11.314,84.853-11.314,36.025,0,72.694,1.9482,107.48,11.314,15.663,4.217,23.377,28.284,39.598,28.284,29.814,0,55.061-27.138,84.853-28.284,22.054-0.84824,40.972,16.677,62.225,22.627,25.998,7.2794,52.22,18.05,79.196,16.971,22.053-0.88212,40.814-17.275,62.225-22.627,9.1466-2.2866,19.34-2.9814,28.284,0,20,6.6667,36.323,34.162,56.569,28.284,45.704-13.269,77.271-55.943,118.79-79.196,6.5808-3.6853,15.085,0,22.627,0,5.6569,0,11.812-2.3214,16.971,0,33.076,14.884,60.897,42.447,96.166,50.912,15.666,3.7598,30.845-9.7656,45.255-16.971,15.911-7.9554,28.379-22.659,45.255-28.284,17.978-5.9926,37.684-7.2306,56.568-5.6569,26.905,2.2421,53.863,7.6372,79.196,16.971,11.329,4.174,16.222,23.152,28.284,22.627,35.193-1.5301,67.007-22.928,101.82-28.284,15.026-2.3116,30.17,3.7712,45.255,5.6569,15.085,1.8856,30.506,1.9697,45.255,5.6568,15.63,3.9074,29.156,16.351,45.255,16.971,34.125,1.3125,68.693-3.0311,101.82-11.314,6.5957-1.6489,4.5429-17.586,11.314-16.971,18.495,1.6814,32.834,18.374,50.912,22.627,14.684,3.455,30.463,2.9584,45.255,0,32.764-6.5529,62.766-27.356,96.167-28.284,36.598-1.0166,71.495,15.88,107.48,22.627,24.377,4.5706,49.575,4.9233,73.539,11.314,32.846,8.7588,63.112,26.008,96.166,33.941,61.499,14.76,124.97,20.058,186.68,33.941,14.01,3.1523,26.123,12.006,39.598,16.971,22.381,8.2456,44.803,16.607,67.882,22.627,20.399,5.3215,41.155,12.016,62.225,11.314,36.25-1.2084,71.876-10.048,107.48-16.971,32.326-6.2855,64.553-13.407,96.166-22.627,13.786-4.0209,25.666-13.488,39.598-16.971,24.061-6.0152,48.879-8.6715,73.539-11.314,28.186-3.0199,56.612-8.1126,84.853-5.6568,16.05,1.3957,30.721,10.02,45.255,16.971,28.918,13.831,53.754,37.48,84.853,45.255,23.851,5.9628,49.169-2.4076,73.539-5.6569,4.1794-0.55725,7.1001-5.8073,11.314-5.6568,49.14,1.755,98.999,1.011,147.08,11.314,32.2,6.9,59.269,29.184,90.51,39.598,36.878,12.293,75.26,19.543,113.14,28.284,60.185,13.889,119.33,36.482,181.02,39.598,126.23,6.3753,60.329,5.6876,186.59,0v678.82l-3988.4-11.3z" filter="url(#filter4533)" stroke="#a3ceea" stroke-linecap="butt" stroke-width="1px" fill="#a3ceea"/>
 </g>
 <g id="layer6">
  <path class="Animate-Draw5" id="path4442" stroke-linejoin="miter" d="m0,768.39,50.912,0,45.255,16.971,107.48-28.284,96.167,22.627,45.255,16.971,45.255-22.627,62.225-5.6569,62.225,0,62.225,45.255,56.569-22.627,101.82-11.314,22.627,5.6569,113.14-62.225,45.255-22.627,73.539-22.627,62.225,50.912,67.882-28.284,90.51,39.598,56.569,5.6569,73.539,0,45.255-22.627,67.882-22.627,84.853-22.627,50.912,16.971,84.853-5.6569,79.196-11.314,50.912,16.971,22.627-22.627,62.225,0,113.14,50.912,33.941,5.6568,50.912-11.314,135.76,22.627,84.853-11.314,11.314-22.627,96.167,45.255,101.82,5.6569,56.569,22.627,73.539,5.6569,73.539,28.284,50.912,11.314,84.853-16.971,62.225,0,0,16.971,73.539-50.912,33.941-5.6569,118.79,39.598,33.941,0,186.68-79.196,169.71,11.314l260.2-22.63,192.3-96.16v1091.8l-3988-11.3v-933.41z" filter="url(#filter4545)" stroke="#86bce2" stroke-linecap="butt" stroke-width="1px" fill="#86bce2"/>
 </g>
 <g id="layer5">
  <path class="Animate-Draw4" id="path4439" stroke-linejoin="miter" d="m0,875.87c70.352,3.7688,45.395,37.214,113.14,56.569,37.858,10.817,73.9,37.211,113.14,33.941,55.87-4.6558,102.34-57.444,158.39-56.569,70.972,1.1089,138.01,35.2,203.65,62.225,31.433,12.943,55.796,38.927,84.853,56.569,23.798,14.449,47.344,30.168,73.539,39.598,21.584,7.7701,45.326,15.491,67.882,11.314,30.691-5.6835,54.63-31.799,84.853-39.598,29.27-7.5535,60.34-3.7713,90.51-5.6569s11.314,16.971,39.598,33.941,67.882,47.14,90.51,39.598c22.627-7.5425,46.132-12.84,67.882-22.627,16.222-7.2999,28.806-21.511,45.255-28.284,16.075-6.6192,35.362-3.5392,50.912-11.314,11.926-5.9628,15.039-29.812,28.284-28.284,42.095,4.8571,78.333,32.667,118.79,45.255,44.542,13.857,91.736,18.531,135.76,33.941,31.837,11.143,57.918,36.564,90.51,45.255,25.507,6.802,52.797,0,79.196,0,50.912,0,101.97,3.9048,152.74,0,23.255-1.7889,44.739-14.078,67.882-16.971,22.453-2.8066,46.94-8.5675,67.882,0,23.48,9.6053,33.733,39.862,56.569,50.912,37.071,17.938,79.002,23.33,118.79,33.941,16.798,4.4793,34.709,5.0127,50.912,11.314,18.094,7.0364,33.04,20.702,50.912,28.284,44.494,18.876,92.535,29.297,135.76,50.912,96.65,48.325,210.45,78.171,282.84,158.39l226.2,254.7-2947.2,45.2v-882.47z" filter="url(#filter4541)" stroke="#77b6e0" stroke-linecap="butt" stroke-width="1px" fill="#77b6e0"/>
 </g>
 <g id="layer4">
  <path class="Animate-Draw3" id="path4435" stroke-linejoin="miter" d="m0,1605.6,203.65-28.284c33.67-4.6765,92.039-80.853,118.79-101.82,45.137-35.378,97.782-62.792,152.74-79.196,73.082-21.816,151.31-19.886,226.27-33.941,45.849-8.5966,92.193-17.282,135.76-33.941,21.499-8.2202,33.636-41.564,56.569-39.598,115.34,9.8862,229.59,36.932,339.41,73.539,67.243,22.414,116.06,95.736,186.68,101.82,52.937,4.5635,92.623-52.518,141.42-73.539,73.982-31.869,150.53-57.429,226.27-84.853,33.64-12.18,66.265-37.892,101.82-33.941,87.782,9.7536,166.43,79.414,254.56,73.539,118.99-7.9329,225.18-78.869,339.41-113.14,36.837-11.051,75.272-29.359,113.14-22.627,51.483,9.1524,92.632,49.072,141.42,67.882,107.94,41.616,213.86,94.907,328.1,113.14,67.678,10.8,139.34-4.5917,203.65-28.284,16.313-6.0099,69.567-59.602,84.853-67.882,81.31-44.043,96.156-60.296,186.68-79.196,83.144-17.36,169.84-5.2622,254.56-11.314,47.358-3.3827,93.96-18.253,141.42-16.971,23.843,0.6444,27.053,24.519,50.829,22.627v661.85l-3988,11.4v-277.19z" filter="url(#filter4581)" stroke="#0b8fc7" stroke-linecap="butt" stroke-width="1px" fill="#0b8fc7"/>
 </g>
 <g id="layer3">
  <path class="Animate-Draw2" id="path4433" stroke-linejoin="miter" d="m0,1407.6s53.709-56.38,107.48-45.255c66.577,13.774,107.9,84.81,169.71,113.14,75.364,34.542,156.01,58.785,237.59,73.539,96.772,17.501,195.82,23.631,294.16,22.627,87.245-0.8903,174.18-13.784,260.22-28.284,82.088-13.835,161.62-40.243,243.24-56.568,50.468-10.094,101.73-29.543,152.74-22.627,63.858,8.6588,119.33,49.258,181.02,67.882,38.59,11.65,79.444,13.883,118.79,22.627,28.576,6.3501,55.58,22.627,84.853,22.627,45.879,0,89.987-25.679,135.76-22.627,41.648,2.7765,77.087,41.266,118.79,39.598,57.21-2.2884,111.23-28.803,164.05-50.912,28.949-12.118,50.272-38.733,79.196-50.912,43.446-18.293,89.774-29.25,135.76-39.598,29.663-6.6742,60.472-16.026,90.51-11.314,67.808,10.637,129.67,63.12,197.99,56.569,78.139-7.4927,143.11-64.553,214.96-96.166,69.575-30.613,133.31-88.641,209.3-90.51,162.09-3.9859,318.69,72.574,480.83,73.539,158.13,0.9412,311.04-33.941,311.04-33.941v956.01l-3988,0.0001v-899.44z" filter="url(#filter4573)" stroke="#006db2" stroke-linecap="butt" stroke-width="1px" fill="#006db2"/>
 </g>
 <g id="layer2">
  <path class="Animate-Draw1" stroke-linejoin="miter" d="m0,1770.1s312.28-86.588,497.8-124.87c147.84-30.507,303.9-43.256,452.55-16.971,166.91,29.514,309.05,147.41,475.18,181.02,164.58,33.297,336.4,0.053,503.46,16.97,131.72,13.339,258.48,61.453,390.32,73.539,95.839,8.7852,194.35,8.6334,288.5-11.314,130.67-27.685,246.23-115.6,379.01-130.11,99.258-10.843,196.4,36.235,294.16,56.568,137.96,28.697,274.92,62.13,412.95,90.51,63.768,13.111,128.53,46.855,192.33,33.941,44.772-9.0611,107.48-47.294,107.48-47.294v827.94l-3993.8,0.1z" filter="url(#filter4561)" stroke="#013b64" stroke-linecap="butt" stroke-width="1px" fill="#013b64"/>
 </g>
</svg>